# xmcd CD database file
#
# Track frame offsets:
#	150
#	29289
#	46122
#	71434
#	105860
#	141809
#	160912
#	186866
#	212703
#	237283
#
# Disc length: 3455 seconds
#
# Revision: 3
# Processed by: cddbd v1.5.1PL0 Copyright (c) Steve Scherf et al.
# Submitted via: CDex 1.51
#
DISCID=7e0d7d0a
DTITLE=Wise Hand - Manschoud
DYEAR=1999
DGENRE=New Age
TTITLE0=Manschoud
TTITLE1=Timeless
TTITLE2=Safi
TTITLE3=People
TTITLE4=Marrakesch
TTITLE5=Ai Dis
TTITLE6=Spirit
TTITLE7=Good Bye
TTITLE8=L'Amor Indra
TTITLE9=Midnight
EXTD=YEAR: 1999
EXTT0=
EXTT1=
EXTT2=
EXTT3=
EXTT4=
EXTT5=
EXTT6=
EXTT7=
EXTT8=
EXTT9=
PLAYORDER=
